<svg width="211" height="66" viewBox="0 0 211 66" fill="none" xmlns="http://www.w3.org/2000/svg">
<g id="email-logo 1" clip-path="url(#clip0_1_114)">
<path id="Vector" d="M16.0029 5.44955H-36.5149L-29.7819 14.9634H1.63908C-0.156391 18.7954 -8.14632 27.3313 -20.3556 32.4054L-19.0089 26.8557L-7.3383 20.1167H-27.0886L-36.5149 45.8833C4.42208 43.6634 15.554 18.0025 16.0029 5.44955Z" fill="#120D34"/>
<path id="Vector_2" d="M-24.3954 49.8474L-27.9864 60.5504C10.0778 55.7935 27.3741 31.084 30.3669 19.3239H18.6962C5.76867 42.4742 -15.5676 49.3188 -24.3954 49.8474Z" fill="url(#paint0_linear_1_114)"/>
<path id="Vector_3" d="M44.2819 18.5311H59.5435C61.4887 18.2668 65.4681 18.6104 65.8274 22.0987C66.1867 25.5872 65.9768 31.7447 65.8274 34.3875C65.379 35.7088 63.4935 38.3515 59.5435 38.3515C55.5936 38.3515 47.7231 38.3515 44.2819 38.3515M70.3162 18.5311H91.8617M70.3162 27.6485H91.8617M70.3162 38.3515H91.8617M119.692 18.5311H102.635C101.138 18.6632 98.1462 20.0374 98.1462 24.4772C98.1462 28.917 98.1462 32.934 98.1462 34.3875C98.5953 35.7088 100.121 38.3515 102.635 38.3515C105.149 38.3515 115.053 38.3515 119.692 38.3515V31.2162C118.944 30.0269 116.909 27.6485 114.754 27.6485C112.599 27.6485 108.769 27.6485 107.123 27.6485M125.527 39.5408V27.6485M142.584 27.6485C144.021 27.6485 144.978 25.5343 145.278 24.4772V18.5311H129.119L125.527 22.0987V27.6485M142.584 27.6485C141.148 27.6485 130.615 27.6485 125.527 27.6485M142.584 27.6485L145.278 29.2341L146.175 31.2162V39.5408" stroke="#120D34" stroke-width="3"/>
<path id="Vector_4" d="M177.147 39.5408V17.7383M182.983 39.5408V18.9275H186.124L203.182 38.3515H205.875V17.7383M152.46 39.5408V23.2879L153.357 20.9095L155.601 18.9275H167.272L169.516 20.9095L170.863 23.2879V39.5408" stroke="#120D34" stroke-width="3"/>
</g>
<defs>
<linearGradient id="paint0_linear_1_114" x1="1.1902" y1="19.3239" x2="1.1902" y2="60.5505" gradientUnits="userSpaceOnUse">
<stop stop-color="#812ABC"/>
<stop offset="0.586179" stop-color="#E4319E"/>
</linearGradient>
<clipPath id="clip0_1_114">
<rect width="253" height="66" fill="white" transform="translate(-42)"/>
</clipPath>
</defs>
</svg>
