<svg width="70" height="70" viewBox="0 0 70 70" fill="none" xmlns="http://www.w3.org/2000/svg">
<g id="makes-icon2 1" clip-path="url(#clip0_20_38)">
<path id="Vector" d="M35 69C53.7777 69 69 53.7777 69 35C69 16.2223 53.7777 1 35 1C16.2223 1 1 16.2223 1 35C1 53.7777 16.2223 69 35 69Z" fill="url(#paint0_linear_20_38)" stroke="white" stroke-width="2"/>
<g id="Group">
<path id="Vector_2" d="M16.8314 38.5028L19.7332 39.3294L31.1756 49.4587C33.3282 51.3621 36.4098 51.4948 38.6973 49.7751L44.9654 45.0651C45.8694 44.3864 45.9993 43.0188 45.2401 42.1616L37.0341 32.8998L33.7428 33.2162L29.6722 36.6198C28.2338 38.5334 25.2721 36.0228 26.7105 34.1092L29.3726 27.5417L23.2643 27.2407L18.8042 26.1895" stroke="white" stroke-width="2" stroke-linecap="round" stroke-linejoin="round"/>
<path id="Vector_3" d="M45.6047 42.5697L48.4466 41.044L51.1686 39.9622" stroke="white" stroke-width="2" stroke-linecap="round" stroke-linejoin="round"/>
<path id="Vector_4" d="M29.3726 27.5418L34.472 27.006C35.416 26.909 36.3649 26.9805 37.2889 27.2203L44.2213 29.0216L47.0232 28.2562" stroke="white" stroke-width="2" stroke-linecap="round" stroke-linejoin="round"/>
<path id="Vector_5" d="M47.0232 26.1895L52.9766 43.0597L58.0011 41.2686L51.8079 24.6433L47.0232 26.1895Z" stroke="white" stroke-width="2" stroke-linecap="round" stroke-linejoin="round"/>
<path id="Vector_6" d="M18.6694 24.3575L15.7925 42.2993L9.9989 41.5339L13.0106 23.0205L18.6694 24.3575Z" stroke="white" stroke-width="2" stroke-linecap="round" stroke-linejoin="round"/>
<path id="Vector_7" d="M35.5508 45.7336L39.6862 49.0352" stroke="white" stroke-width="2" stroke-linecap="round" stroke-linejoin="round"/>
<path id="Vector_8" d="M39.6862 42.5698L43.6369 45.7336" stroke="white" stroke-width="2" stroke-linecap="round" stroke-linejoin="round"/>
</g>
</g>
<defs>
<linearGradient id="paint0_linear_20_38" x1="13.2875" y1="9.60943e-08" x2="13.2875" y2="27.4073" gradientUnits="userSpaceOnUse">
<stop stop-color="#78C0FF"/>
<stop offset="1" stop-color="#BE60E6" stop-opacity="0.44"/>
</linearGradient>
<clipPath id="clip0_20_38">
<rect width="70" height="70" fill="white"/>
</clipPath>
</defs>
</svg>
